<?xml version="1.0" encoding="UTF-8" standalone="no"?>
<!-- LUG Manager logo. Logo Concept by Brigs; Final Design by Alexandria B (ROCLUG). -->

<svg
   width="512"
   height="512"
   viewBox="0 0 512 512"
   version="1.1"
   id="svg1"
   xml:space="preserve"
   xmlns="http://www.w3.org/2000/svg"
   xmlns:svg="http://www.w3.org/2000/svg"
   role="img" aria-label="LUG Manager"><title>LUG Manager</title><defs
     id="defs1"><filter
       style="color-interpolation-filters:sRGB;"
       id="filter21"
       x="-0.075504623"
       y="-0.075504624"
       width="1.1510092"
       height="1.1510092"><feFlood
         result="flood"
         in="SourceGraphic"
         flood-opacity="0.498039"
         flood-color="rgb(0,0,0)"
         id="feFlood20" /><feGaussianBlur
         result="blur"
         in="SourceGraphic"
         stdDeviation="10.000000"
         id="feGaussianBlur20" /><feOffset
         result="offset"
         in="blur"
         dx="0.000000"
         dy="0.000000"
         id="feOffset20" /><feComposite
         result="comp1"
         operator="in"
         in="flood"
         in2="offset"
         id="feComposite20" /><feComposite
         result="comp2"
         operator="out"
         in="comp1"
         in2="SourceGraphic"
         id="feComposite21" /></filter><filter
       style="color-interpolation-filters:sRGB;"
       id="filter6"
       x="-0.09054068"
       y="-0.11298168"
       width="1.1810814"
       height="1.2259634"><feFlood
         result="flood"
         in="SourceGraphic"
         flood-opacity="0.498039"
         flood-color="rgb(0,0,0)"
         id="feFlood5" /><feGaussianBlur
         result="blur"
         in="SourceGraphic"
         stdDeviation="10.000000"
         id="feGaussianBlur5" /><feOffset
         result="offset"
         in="blur"
         dx="0.000000"
         dy="0.000000"
         id="feOffset5" /><feComposite
         result="comp1"
         operator="in"
         in="flood"
         in2="offset"
         id="feComposite5" /><feComposite
         result="comp2"
         operator="out"
         in="comp1"
         in2="SourceGraphic"
         id="feComposite6" /></filter><filter
       id="mask-powermask-path-effect17_inverse"
       style="color-interpolation-filters:sRGB"
       height="100"
       width="100"
       x="-50"
       y="-50"><feColorMatrix
         id="mask-powermask-path-effect17_primitive1"
         values="1"
         type="saturate"
         result="fbSourceGraphic" /><feColorMatrix
         id="mask-powermask-path-effect17_primitive2"
         values="-1 0 0 0 1 0 -1 0 0 1 0 0 -1 0 1 0 0 0 1 0 "
         in="fbSourceGraphic" /></filter><mask
       maskUnits="userSpaceOnUse"
       id="mask17"><path
         id="path17"
         style="display:inline;fill:#ffffff;fill-opacity:1;stroke-width:3.99999;stroke-linecap:round;paint-order:markers stroke fill"
         d="M 140.80045,5.8632812 V 94.730469 C 59.071899,124.30669 0.6618592,202.58462 0.66178,294.51953 A 212.424,212.42401 0 0 0 213.08561,506.94336 212.424,212.42401 0 0 0 408.19108,377.72461 h 104.4707 V 59.863281 h -27 v -27 h -27 V 5.8632812 Z m 0,211.2148388 v 106.64649 h 27 v 27 h 27 v 27 h 83.11719 A 105.95869,105.95869 0 0 1 213.08561,400.47656 105.95869,105.95869 0 0 1 107.12662,294.51953 c -8e-5,-30.5713 12.96389,-58.10181 33.67383,-77.44141 z" /></mask></defs><g
     id="layer6"
     style="display:inline"
     transform="translate(-0.66178)"
     mask="url(#mask17)"><g
       id="layer3"
       style="display:inline"><path
         id="path3"
         style="display:inline;fill:#ffd739;fill-opacity:1;stroke-width:3.99999;stroke-linecap:round;paint-order:markers stroke fill"
         d="m 277.25586,377.72461 a 105.95869,105.95869 0 0 1 -64.83203,22.75195 v 106.4668 A 212.424,212.42401 0 0 0 407.5293,377.72461 Z"
         transform="translate(0.66178)" /></g><g
       id="layer2"
       style="display:inline"><path
         id="path32"
         style="display:inline;fill:#fffbf6;fill-opacity:1;stroke-width:4;stroke-linecap:round;paint-order:markers stroke fill;filter:url(#filter21)"
         d="M 194.80103,32.863024 V 350.72435 H 512.66236 V 59.863023 32.863024 Z"
         mask="none"
         transform="matrix(0.99999877,0,0,1,2.3997645e-4,26.999999)" /><rect
         style="display:inline;fill:#809a84;fill-opacity:1;stroke-width:4;stroke-linecap:round;paint-order:markers stroke fill"
         id="rect5"
         width="317.86099"
         height="317.86102"
         x="194.80099"
         y="59.862999" /><path
         id="rect23"
         style="fill:#fffbf6;fill-opacity:1;stroke-width:4;stroke-linecap:round;paint-order:markers stroke fill;filter:url(#filter21)"
         d="M 167.80103,32.863024 V 350.72435 H 485.66236 V 59.863023 32.863024 Z"
         mask="none" /><rect
         style="display:inline;fill:#c6bbdd;fill-opacity:1;stroke-width:4;stroke-linecap:round;paint-order:markers stroke fill"
         id="rect4-2"
         width="317.86099"
         height="317.86102"
         x="167.80099"
         y="32.862999" /><path
         id="path29"
         style="fill:#fffbf6;fill-opacity:1;stroke-width:4;stroke-linecap:round;paint-order:markers stroke fill;filter:url(#filter21)"
         d="M 140.80078,5.8632812 V 323.72461 H 458.66211 V 32.863281 5.8632812 Z"
         mask="none" /><rect
         style="fill:#b0d2f7;fill-opacity:1;stroke-width:4;stroke-linecap:round;paint-order:markers stroke fill"
         id="rect4"
         width="317.86099"
         height="317.86102"
         x="140.80078"
         y="5.8632817" /></g><g
       id="layer1"
       style="display:inline"
       transform="translate(0.66178)"><path
         id="path5"
         style="display:inline;fill:#ffd739;fill-opacity:1;stroke-width:4;stroke-linecap:round;paint-order:markers stroke fill;filter:url(#filter6)"
         d="M 212.42383,82.095703 C 95.105547,82.095797 1.0106785e-4,177.20125 0,294.51953 h 106.46484 c -1.6e-4,-58.51954 47.43945,-105.95915 105.95899,-105.95898 v -8.26953 h 8.37109 l 44.2793,-44.53321 V 82.095703 Z"
         mask="none" /><path
         id="path4"
         style="display:inline;fill:#ffd739;fill-opacity:1;stroke-width:4;stroke-linecap:round;paint-order:markers stroke fill"
         d="M 212.42383 82.095703 C 95.105662 82.095797 0.00010106775 177.20137 0 294.51953 A 212.424 212.42401 0 0 0 212.42383 506.94336 L 212.42383 400.47656 A 105.95869 105.95869 0 0 1 106.46484 294.51953 C 106.46468 236.00005 153.90435 188.56038 212.42383 188.56055 L 212.42383 180.29102 L 220.79492 180.29102 L 265.07422 135.75781 L 265.07422 82.095703 L 212.42383 82.095703 z " /></g><g
       id="layer7"><path
         id="path21"
         style="fill:none;fill-opacity:1;stroke:#cca646;stroke-width:4;stroke-linecap:butt;stroke-opacity:1;paint-order:markers stroke fill"
         d="M 107.12662,294.51953 H 0.66178 m 212.42383,212.42383 0.66178,-106.4668 m -0.71256,-265.09765 c -87.89074,4.8e-4 -159.140148,71.24988 -159.140628,159.14062 4.75e-4,87.89075 71.249878,159.14015 159.140628,159.14063 55.26474,-0.0803 106.53105,-28.30045 135.42578,-75.40981 l 1.7e-4,-0.5267" /><path
         id="path22"
         style="fill:#cca747;fill-opacity:1;stroke:none;stroke-width:4;stroke-linecap:butt;stroke-linejoin:miter;stroke-opacity:0;paint-order:normal"
         d="M 213.08561,82.095703 V 184.29102 l 4,-4 V 82.095703 Z" /></g></g></svg>
